<svg width="108" height="106" viewBox="0 0 108 106" fill="none" xmlns="http://www.w3.org/2000/svg">
<mask id="mask0_330_32" style="mask-type:alpha" maskUnits="userSpaceOnUse" x="0" y="0" width="100" height="100">
<rect width="100" height="100" fill="#D9D9D9"/>
</mask>
<g mask="url(#mask0_330_32)">
<path d="M20.8333 87.5C18.5417 87.5 16.5799 86.684 14.9479 85.0521C13.316 83.4201 12.5 81.4583 12.5 79.1667V20.8333C12.5 18.5417 13.316 16.5799 14.9479 14.9479C16.5799 13.316 18.5417 12.5 20.8333 12.5H79.1667C81.4583 12.5 83.4201 13.316 85.0521 14.9479C86.684 16.5799 87.5 18.5417 87.5 20.8333V31.25H79.1667V20.8333H20.8333V79.1667H79.1667V68.75H87.5V79.1667C87.5 81.4583 86.684 83.4201 85.0521 85.0521C83.4201 86.684 81.4583 87.5 79.1667 87.5H20.8333ZM54.1667 70.8333C51.875 70.8333 49.9132 70.0174 48.2813 68.3854C46.6493 66.7535 45.8333 64.7917 45.8333 62.5V37.5C45.8333 35.2083 46.6493 33.2465 48.2813 31.6146C49.9132 29.9826 51.875 29.1667 54.1667 29.1667H83.3333C85.625 29.1667 87.5868 29.9826 89.2187 31.6146C90.8507 33.2465 91.6667 35.2083 91.6667 37.5V62.5C91.6667 64.7917 90.8507 66.7535 89.2187 68.3854C87.5868 70.0174 85.625 70.8333 83.3333 70.8333H54.1667ZM83.3333 62.5V37.5H54.1667V62.5H83.3333ZM71.0937 54.4271C72.309 53.2118 72.9167 51.7361 72.9167 50C72.9167 48.2639 72.309 46.7882 71.0937 45.5729C69.8785 44.3576 68.4028 43.75 66.6667 43.75C64.9306 43.75 63.4549 44.3576 62.2396 45.5729C61.0243 46.7882 60.4167 48.2639 60.4167 50C60.4167 51.7361 61.0243 53.2118 62.2396 54.4271C63.4549 55.6424 64.9306 56.25 66.6667 56.25C68.4028 56.25 69.8785 55.6424 71.0937 54.4271Z" fill="#FF9542"/>
</g>
<mask id="mask1_330_32" style="mask-type:alpha" maskUnits="userSpaceOnUse" x="78" y="76" width="30" height="30">
<rect x="78" y="76" width="30" height="30" fill="#D9D9D9"/>
</mask>
<g mask="url(#mask1_330_32)">
<path d="M91.2501 96.7502L100.063 87.9377L98.3126 86.1877L91.2501 93.2502L87.6876 89.6877L85.9376 91.4377L91.2501 96.7502ZM93.0001 103.5C91.2709 103.5 89.6459 103.172 88.1251 102.516C86.6042 101.86 85.2813 100.969 84.1563 99.844C83.0313 98.719 82.1407 97.3961 81.4844 95.8752C80.8282 94.3544 80.5001 92.7294 80.5001 91.0002C80.5001 89.2711 80.8282 87.6461 81.4844 86.1252C82.1407 84.6044 83.0313 83.2815 84.1563 82.1565C85.2813 81.0315 86.6042 80.1409 88.1251 79.4846C89.6459 78.8284 91.2709 78.5002 93.0001 78.5002C94.7292 78.5002 96.3542 78.8284 97.8751 79.4846C99.3959 80.1409 100.719 81.0315 101.844 82.1565C102.969 83.2815 103.859 84.6044 104.516 86.1252C105.172 87.6461 105.5 89.2711 105.5 91.0002C105.5 92.7294 105.172 94.3544 104.516 95.8752C103.859 97.3961 102.969 98.719 101.844 99.844C100.719 100.969 99.3959 101.86 97.8751 102.516C96.3542 103.172 94.7292 103.5 93.0001 103.5ZM93.0001 101C95.7917 101 98.1563 100.031 100.094 98.094C102.031 96.1565 103 93.7919 103 91.0002C103 88.2086 102.031 85.844 100.094 83.9065C98.1563 81.969 95.7917 81.0002 93.0001 81.0002C90.2084 81.0002 87.8438 81.969 85.9063 83.9065C83.9688 85.844 83.0001 88.2086 83.0001 91.0002C83.0001 93.7919 83.9688 96.1565 85.9063 98.094C87.8438 100.031 90.2084 101 93.0001 101Z" fill="#FF9542"/>
</g>
</svg>
