<svg width="182" height="174" viewBox="0 0 182 174" fill="none" xmlns="http://www.w3.org/2000/svg">
<g filter="url(#filter0_d_329_13)">
<mask id="mask0_329_13" style="mask-type:alpha" maskUnits="userSpaceOnUse" x="4" y="0" width="174" height="174">
<rect x="4" width="174" height="174" fill="#D9D9D9"/>
</mask>
<g mask="url(#mask0_329_13)">
<path d="M4 130.5V119.081C4 113.885 6.65833 109.656 11.975 106.394C17.2917 103.131 24.3 101.5 33 101.5C34.5708 101.5 36.0812 101.53 37.5312 101.591C38.9813 101.651 40.3708 101.802 41.7 102.044C40.0083 104.581 38.7396 107.24 37.8938 110.019C37.0479 112.798 36.625 115.698 36.625 118.719V130.5H4ZM47.5 130.5V118.719C47.5 114.852 48.5573 111.318 50.6719 108.116C52.7865 104.914 55.7771 102.104 59.6438 99.6875C63.5104 97.2708 68.1323 95.4583 73.5094 94.25C78.8865 93.0417 84.7167 92.4375 91 92.4375C97.4042 92.4375 103.295 93.0417 108.672 94.25C114.049 95.4583 118.671 97.2708 122.538 99.6875C126.404 102.104 129.365 104.914 131.419 108.116C133.473 111.318 134.5 114.852 134.5 118.719V130.5H47.5ZM145.375 130.5V118.719C145.375 115.577 144.982 112.617 144.197 109.838C143.411 107.058 142.233 104.46 140.663 102.044C141.992 101.802 143.351 101.651 144.741 101.591C146.13 101.53 147.55 101.5 149 101.5C157.7 101.5 164.708 103.101 170.025 106.303C175.342 109.505 178 113.765 178 119.081V130.5H145.375ZM62.9062 116H119.275C118.067 113.583 114.714 111.469 109.216 109.656C103.718 107.844 97.6458 106.938 91 106.938C84.3542 106.938 78.2823 107.844 72.7844 109.656C67.2865 111.469 63.9938 113.583 62.9062 116ZM33 94.25C29.0125 94.25 25.599 92.8302 22.7594 89.9906C19.9198 87.151 18.5 83.7375 18.5 79.75C18.5 75.6417 19.9198 72.1979 22.7594 69.4188C25.599 66.6396 29.0125 65.25 33 65.25C37.1083 65.25 40.5521 66.6396 43.3313 69.4188C46.1104 72.1979 47.5 75.6417 47.5 79.75C47.5 83.7375 46.1104 87.151 43.3313 89.9906C40.5521 92.8302 37.1083 94.25 33 94.25ZM149 94.25C145.012 94.25 141.599 92.8302 138.759 89.9906C135.92 87.151 134.5 83.7375 134.5 79.75C134.5 75.6417 135.92 72.1979 138.759 69.4188C141.599 66.6396 145.012 65.25 149 65.25C153.108 65.25 156.552 66.6396 159.331 69.4188C162.11 72.1979 163.5 75.6417 163.5 79.75C163.5 83.7375 162.11 87.151 159.331 89.9906C156.552 92.8302 153.108 94.25 149 94.25ZM91 87C84.9583 87 79.8229 84.8854 75.5938 80.6562C71.3646 76.4271 69.25 71.2917 69.25 65.25C69.25 59.0875 71.3646 53.9219 75.5938 49.7531C79.8229 45.5844 84.9583 43.5 91 43.5C97.1625 43.5 102.328 45.5844 106.497 49.7531C110.666 53.9219 112.75 59.0875 112.75 65.25C112.75 71.2917 110.666 76.4271 106.497 80.6562C102.328 84.8854 97.1625 87 91 87ZM91 72.5C93.0542 72.5 94.776 71.8052 96.1656 70.4156C97.5552 69.026 98.25 67.3042 98.25 65.25C98.25 63.1958 97.5552 61.474 96.1656 60.0844C94.776 58.6948 93.0542 58 91 58C88.9458 58 87.224 58.6948 85.8344 60.0844C84.4448 61.474 83.75 63.1958 83.75 65.25C83.75 67.3042 84.4448 69.026 85.8344 70.4156C87.224 71.8052 88.9458 72.5 91 72.5Z" fill="#F58220"/>
</g>
</g>
<defs>
<filter id="filter0_d_329_13" x="0" y="43.5" width="182" height="95" filterUnits="userSpaceOnUse" color-interpolation-filters="sRGB">
<feFlood flood-opacity="0" result="BackgroundImageFix"/>
<feColorMatrix in="SourceAlpha" type="matrix" values="0 0 0 0 0 0 0 0 0 0 0 0 0 0 0 0 0 0 127 0" result="hardAlpha"/>
<feOffset dy="4"/>
<feGaussianBlur stdDeviation="2"/>
<feComposite in2="hardAlpha" operator="out"/>
<feColorMatrix type="matrix" values="0 0 0 0 0 0 0 0 0 0 0 0 0 0 0 0 0 0 0.25 0"/>
<feBlend mode="normal" in2="BackgroundImageFix" result="effect1_dropShadow_329_13"/>
<feBlend mode="normal" in="SourceGraphic" in2="effect1_dropShadow_329_13" result="shape"/>
</filter>
</defs>
</svg>
