<svg xmlns="http://www.w3.org/2000/svg" viewBox="0 0 24 24" fill="currentColor">
  <path d="M12 2C6.477 2 2 6.477 2 12c0 1.89.525 3.66 1.438 5.168L2 22l4.978-1.395A9.953 9.953 0 0 0 12 22c5.523 0 10-4.477 10-10S17.523 2 12 2zm0 18a7.952 7.952 0 0 1-4.073-1.117l-.292-.174-3.035.851.815-3.114-.19-.302A7.953 7.953 0 0 1 4 12c0-4.411 3.589-8 8-8s8 3.589 8 8-3.589 8-8 8zm4.406-5.844c-.242-.121-1.432-.707-1.654-.787-.222-.08-.384-.121-.545.121-.161.242-.626.787-.768.949-.141.161-.283.181-.525.06-.242-.121-1.022-.376-1.946-1.2-.719-.641-1.205-1.432-1.346-1.674-.141-.242-.015-.373.106-.494.109-.109.242-.283.363-.424.121-.141.161-.242.242-.403.08-.161.04-.303-.02-.424-.06-.121-.545-1.314-.748-1.8-.197-.472-.397-.408-.545-.415l-.464-.008c-.161 0-.424.06-.646.303-.222.242-.848.829-.848 2.022 0 1.193.868 2.346.989 2.507.121.161 1.71 2.611 4.143 3.661.579.25 1.031.399 1.383.511.581.185 1.11.159 1.528.097.466-.069 1.432-.586 1.634-1.152.202-.565.202-1.049.141-1.152-.06-.101-.222-.161-.464-.282z"/>
</svg>
