<svg width="277" height="117" viewBox="0 0 277 117" fill="none" xmlns="http://www.w3.org/2000/svg">
<path d="M101.982 62.217C99.44 62.217 97.3527 61.6177 95.72 60.419C94.0873 59.1997 93.209 57.4637 93.085 55.211H99.564C99.626 55.9757 99.8533 56.5337 100.246 56.885C100.639 57.2363 101.145 57.412 101.765 57.412C102.323 57.412 102.778 57.2777 103.129 57.009C103.501 56.7197 103.687 56.327 103.687 55.831C103.687 55.1903 103.387 54.6943 102.788 54.343C102.189 53.9917 101.217 53.599 99.874 53.165C98.448 52.6897 97.2907 52.235 96.402 51.801C95.534 51.3463 94.7693 50.6953 94.108 49.848C93.4673 48.98 93.147 47.8537 93.147 46.469C93.147 45.0637 93.4983 43.865 94.201 42.873C94.9037 41.8603 95.875 41.0957 97.115 40.579C98.355 40.0623 99.7603 39.804 101.331 39.804C103.873 39.804 105.898 40.4033 107.407 41.602C108.936 42.78 109.753 44.4437 109.856 46.593H103.253C103.232 45.9317 103.026 45.4357 102.633 45.105C102.261 44.7743 101.775 44.609 101.176 44.609C100.721 44.609 100.349 44.7433 100.06 45.012C99.7707 45.2807 99.626 45.663 99.626 46.159C99.626 46.5723 99.781 46.934 100.091 47.244C100.422 47.5333 100.825 47.7917 101.3 48.019C101.775 48.2257 102.478 48.4943 103.408 48.825C104.793 49.3003 105.929 49.7757 106.818 50.251C107.727 50.7057 108.502 51.3567 109.143 52.204C109.804 53.0307 110.135 54.0847 110.135 55.366C110.135 56.668 109.804 57.8357 109.143 58.869C108.502 59.9023 107.562 60.7187 106.322 61.318C105.103 61.9173 103.656 62.217 101.982 62.217ZM129.421 40.145V44.981H123.593V62H117.517V44.981H111.751V40.145H129.421ZM142.736 62L138.396 53.94H137.745V62H131.669V40.145H141.248C143.004 40.145 144.492 40.455 145.712 41.075C146.931 41.6743 147.851 42.5113 148.471 43.586C149.091 44.64 149.401 45.8283 149.401 47.151C149.401 48.639 148.987 49.9513 148.161 51.088C147.355 52.204 146.166 52.9997 144.596 53.475L149.525 62H142.736ZM137.745 49.786H140.752C141.578 49.786 142.198 49.5897 142.612 49.197C143.025 48.8043 143.232 48.236 143.232 47.492C143.232 46.7893 143.015 46.2417 142.581 45.849C142.167 45.4357 141.558 45.229 140.752 45.229H137.745V49.786ZM165.99 58.435H158.24L157.062 62H150.676L158.643 40.145H165.649L173.585 62H167.168L165.99 58.435ZM164.471 53.785L162.115 46.717L159.79 53.785H164.471ZM192.026 40.145V44.981H186.198V62H180.122V44.981H174.356V40.145H192.026ZM208.1 58.435H200.35L199.172 62H192.786L200.753 40.145H207.759L215.695 62H209.278L208.1 58.435ZM206.581 53.785L204.225 46.717L201.9 53.785H206.581ZM223.751 57.35H230.54V62H217.675V40.145H223.751V57.35ZM238.979 40.145V62H232.903V40.145H238.979ZM257.257 40.145V44.981H248.515V48.825H254.963V53.444H248.515V62H242.439V40.145H257.257ZM276.277 40.145V44.981H270.449V62H264.373V44.981H258.607V40.145H276.277Z" fill="#085A84"/>
<path d="M101.746 85.1953C100.991 85.1953 100.294 85.0651 99.6562 84.8047C99.0182 84.5443 98.4648 84.2513 97.9961 83.9258V82.1094C98.5039 82.4609 99.0833 82.7799 99.7344 83.0664C100.398 83.3398 101.147 83.4766 101.98 83.4766C102.632 83.4766 103.204 83.3138 103.699 82.9883C104.194 82.6628 104.441 82.2135 104.441 81.6406C104.441 81.3151 104.337 81.0352 104.129 80.8008C103.934 80.5664 103.693 80.3646 103.406 80.1953C103.12 80.026 102.84 79.8828 102.566 79.7656L100.398 78.7891C99.7734 78.5026 99.2852 78.1901 98.9336 77.8516C98.582 77.513 98.3346 77.1419 98.1914 76.7383C98.0482 76.3216 97.9766 75.8724 97.9766 75.3906C97.9766 74.7005 98.1719 74.082 98.5625 73.5352C98.9661 72.9753 99.5 72.5326 100.164 72.207C100.828 71.8815 101.544 71.7188 102.312 71.7188C103.081 71.7188 103.712 71.8294 104.207 72.0508C104.715 72.2721 105.158 72.5065 105.535 72.7539V74.5703C105.171 74.2969 104.728 74.043 104.207 73.8086C103.686 73.5612 103.12 73.4375 102.508 73.4375C102.117 73.4375 101.707 73.5091 101.277 73.6523C100.861 73.7826 100.509 73.9974 100.223 74.2969C99.9362 74.5964 99.793 74.9805 99.793 75.4492C99.793 75.9701 99.9818 76.3672 100.359 76.6406C100.737 76.9141 101.193 77.1745 101.727 77.4219L103.523 78.2422C104.422 78.6458 105.099 79.0951 105.555 79.5898C106.01 80.0846 106.238 80.7422 106.238 81.5625C106.238 82.2786 106.03 82.9102 105.613 83.457C105.197 83.9909 104.65 84.4141 103.973 84.7266C103.296 85.0391 102.553 85.1953 101.746 85.1953ZM114.286 85.293C113.296 85.293 112.385 85.1172 111.552 84.7656C110.718 84.401 109.989 83.9062 109.364 83.2812C108.739 82.6562 108.251 81.9336 107.899 81.1133C107.561 80.2799 107.391 79.3945 107.391 78.457C107.391 77.5195 107.561 76.6406 107.899 75.8203C108.251 74.987 108.739 74.2578 109.364 73.6328C109.989 73.0078 110.718 72.5195 111.552 72.168C112.385 71.8034 113.296 71.6211 114.286 71.6211C115.276 71.6211 116.187 71.8034 117.02 72.168C117.854 72.5195 118.583 73.0078 119.208 73.6328C119.833 74.2578 120.315 74.987 120.653 75.8203C121.005 76.6406 121.18 77.5195 121.18 78.457C121.18 79.3945 121.005 80.2799 120.653 81.1133C120.315 81.9336 119.833 82.6562 119.208 83.2812C118.583 83.9062 117.854 84.401 117.02 84.7656C116.187 85.1172 115.276 85.293 114.286 85.293ZM114.286 83.5742C115.262 83.5742 116.135 83.3529 116.903 82.9102C117.671 82.4544 118.277 81.8424 118.72 81.0742C119.162 80.306 119.384 79.4336 119.384 78.457C119.384 77.4805 119.162 76.6081 118.72 75.8398C118.277 75.0586 117.671 74.4466 116.903 74.0039C116.135 73.5612 115.262 73.3398 114.286 73.3398C113.309 73.3398 112.437 73.5612 111.669 74.0039C110.901 74.4466 110.295 75.0586 109.852 75.8398C109.41 76.6081 109.188 77.4805 109.188 78.457C109.188 79.4336 109.41 80.306 109.852 81.0742C110.295 81.8424 110.901 82.4544 111.669 82.9102C112.437 83.3529 113.309 83.5742 114.286 83.5742ZM123.505 85V71.9141H125.263V83.3398H132.47V85H123.505ZM139.893 85.2539C138.877 85.2539 137.959 85.0391 137.139 84.6094C136.332 84.1797 135.687 83.5612 135.205 82.7539C134.737 81.9336 134.502 80.957 134.502 79.8242V71.875H136.26V79.7656C136.26 80.651 136.423 81.3672 136.748 81.9141C137.087 82.4479 137.53 82.8385 138.077 83.0859C138.636 83.3333 139.242 83.457 139.893 83.457C140.544 83.457 141.143 83.3333 141.69 83.0859C142.25 82.8385 142.692 82.4479 143.018 81.9141C143.357 81.3672 143.526 80.651 143.526 79.7656V71.875H145.284V79.8242C145.284 80.957 145.043 81.9336 144.561 82.7539C144.092 83.5612 143.454 84.1797 142.647 84.6094C141.84 85.0391 140.922 85.2539 139.893 85.2539ZM151.534 85V71.9141H153.292V85H151.534ZM147.023 73.5742V71.9141H157.804V73.5742H147.023ZM161.926 85V71.9141H163.684V85H161.926ZM159.719 85V83.3398H165.891V85H159.719ZM159.719 73.5742V71.9141H165.891V73.5742H159.719ZM174.329 85.293C173.339 85.293 172.428 85.1172 171.595 84.7656C170.761 84.401 170.032 83.9062 169.407 83.2812C168.782 82.6562 168.294 81.9336 167.942 81.1133C167.604 80.2799 167.434 79.3945 167.434 78.457C167.434 77.5195 167.604 76.6406 167.942 75.8203C168.294 74.987 168.782 74.2578 169.407 73.6328C170.032 73.0078 170.761 72.5195 171.595 72.168C172.428 71.8034 173.339 71.6211 174.329 71.6211C175.318 71.6211 176.23 71.8034 177.063 72.168C177.897 72.5195 178.626 73.0078 179.251 73.6328C179.876 74.2578 180.358 74.987 180.696 75.8203C181.048 76.6406 181.223 77.5195 181.223 78.457C181.223 79.3945 181.048 80.2799 180.696 81.1133C180.358 81.9336 179.876 82.6562 179.251 83.2812C178.626 83.9062 177.897 84.401 177.063 84.7656C176.23 85.1172 175.318 85.293 174.329 85.293ZM174.329 83.5742C175.305 83.5742 176.178 83.3529 176.946 82.9102C177.714 82.4544 178.32 81.8424 178.762 81.0742C179.205 80.306 179.427 79.4336 179.427 78.457C179.427 77.4805 179.205 76.6081 178.762 75.8398C178.32 75.0586 177.714 74.4466 176.946 74.0039C176.178 73.5612 175.305 73.3398 174.329 73.3398C173.352 73.3398 172.48 73.5612 171.712 74.0039C170.943 74.4466 170.338 75.0586 169.895 75.8398C169.453 76.6081 169.231 77.4805 169.231 78.457C169.231 79.4336 169.453 80.306 169.895 81.0742C170.338 81.8424 170.943 82.4544 171.712 82.9102C172.48 83.3529 173.352 83.5742 174.329 83.5742ZM193.802 85L185.306 75.6445V85H183.548V71.9141H184.213L192.709 81.3867V71.9141H194.466V85H193.802ZM200.561 85.1953C199.806 85.1953 199.109 85.0651 198.471 84.8047C197.833 84.5443 197.28 84.2513 196.811 83.9258V82.1094C197.319 82.4609 197.898 82.7799 198.549 83.0664C199.213 83.3398 199.962 83.4766 200.795 83.4766C201.446 83.4766 202.019 83.3138 202.514 82.9883C203.009 82.6628 203.256 82.2135 203.256 81.6406C203.256 81.3151 203.152 81.0352 202.944 80.8008C202.748 80.5664 202.508 80.3646 202.221 80.1953C201.935 80.026 201.655 79.8828 201.381 79.7656L199.213 78.7891C198.588 78.5026 198.1 78.1901 197.748 77.8516C197.397 77.513 197.149 77.1419 197.006 76.7383C196.863 76.3216 196.791 75.8724 196.791 75.3906C196.791 74.7005 196.987 74.082 197.377 73.5352C197.781 72.9753 198.315 72.5326 198.979 72.207C199.643 71.8815 200.359 71.7188 201.127 71.7188C201.896 71.7188 202.527 71.8294 203.022 72.0508C203.53 72.2721 203.972 72.5065 204.35 72.7539V74.5703C203.985 74.2969 203.543 74.043 203.022 73.8086C202.501 73.5612 201.935 73.4375 201.323 73.4375C200.932 73.4375 200.522 73.5091 200.092 73.6523C199.676 73.7826 199.324 73.9974 199.037 74.2969C198.751 74.5964 198.608 74.9805 198.608 75.4492C198.608 75.9701 198.797 76.3672 199.174 76.6406C199.552 76.9141 200.008 77.1745 200.541 77.4219L202.338 78.2422C203.237 78.6458 203.914 79.0951 204.37 79.5898C204.825 80.0846 205.053 80.7422 205.053 81.5625C205.053 82.2786 204.845 82.9102 204.428 83.457C204.011 83.9909 203.465 84.4141 202.787 84.7266C202.11 85.0391 201.368 85.1953 200.561 85.1953Z" fill="#085A83"/>
<path d="M15.315 113.09C14.515 113.09 13.775 112.96 13.095 112.7C12.425 112.43 11.84 112.055 11.34 111.575C10.85 111.095 10.465 110.53 10.185 109.88C9.915 109.23 9.78 108.52 9.78 107.75C9.78 106.98 9.915 106.27 10.185 105.62C10.465 104.97 10.855 104.405 11.355 103.925C11.855 103.445 12.44 103.075 13.11 102.815C13.79 102.545 14.53 102.41 15.33 102.41C16.13 102.41 16.86 102.535 17.52 102.785C18.19 103.035 18.76 103.415 19.23 103.925L18.54 104.63C18.1 104.19 17.615 103.875 17.085 103.685C16.555 103.495 15.985 103.4 15.375 103.4C14.725 103.4 14.125 103.51 13.575 103.73C13.035 103.94 12.56 104.245 12.15 104.645C11.75 105.035 11.435 105.495 11.205 106.025C10.985 106.545 10.875 107.12 10.875 107.75C10.875 108.37 10.985 108.945 11.205 109.475C11.435 110.005 11.75 110.47 12.15 110.87C12.56 111.26 13.035 111.565 13.575 111.785C14.125 111.995 14.72 112.1 15.36 112.1C15.96 112.1 16.525 112.01 17.055 111.83C17.595 111.65 18.09 111.345 18.54 110.915L19.17 111.755C18.67 112.195 18.085 112.53 17.415 112.76C16.745 112.98 16.045 113.09 15.315 113.09ZM19.17 111.755L18.105 111.62V107.75H19.17V111.755ZM24.8316 113.075C24.0116 113.075 23.2916 112.905 22.6716 112.565C22.0516 112.215 21.5666 111.74 21.2166 111.14C20.8666 110.53 20.6916 109.835 20.6916 109.055C20.6916 108.275 20.8566 107.585 21.1866 106.985C21.5266 106.385 21.9866 105.915 22.5666 105.575C23.1566 105.225 23.8166 105.05 24.5466 105.05C25.2866 105.05 25.9416 105.22 26.5116 105.56C27.0916 105.89 27.5466 106.36 27.8766 106.97C28.2066 107.57 28.3716 108.265 28.3716 109.055C28.3716 109.105 28.3666 109.16 28.3566 109.22C28.3566 109.27 28.3566 109.325 28.3566 109.385H21.5016V108.59H27.7866L27.3666 108.905C27.3666 108.335 27.2416 107.83 26.9916 107.39C26.7516 106.94 26.4216 106.59 26.0016 106.34C25.5816 106.09 25.0966 105.965 24.5466 105.965C24.0066 105.965 23.5216 106.09 23.0916 106.34C22.6616 106.59 22.3266 106.94 22.0866 107.39C21.8466 107.84 21.7266 108.355 21.7266 108.935V109.1C21.7266 109.7 21.8566 110.23 22.1166 110.69C22.3866 111.14 22.7566 111.495 23.2266 111.755C23.7066 112.005 24.2516 112.13 24.8616 112.13C25.3416 112.13 25.7866 112.045 26.1966 111.875C26.6166 111.705 26.9766 111.445 27.2766 111.095L27.8766 111.785C27.5266 112.205 27.0866 112.525 26.5566 112.745C26.0366 112.965 25.4616 113.075 24.8316 113.075ZM33.1493 113.075C32.3893 113.075 31.7043 112.905 31.0943 112.565C30.4943 112.215 30.0193 111.74 29.6693 111.14C29.3193 110.53 29.1443 109.835 29.1443 109.055C29.1443 108.265 29.3193 107.57 29.6693 106.97C30.0193 106.37 30.4943 105.9 31.0943 105.56C31.6943 105.22 32.3793 105.05 33.1493 105.05C33.9293 105.05 34.6193 105.22 35.2193 105.56C35.8293 105.9 36.3043 106.37 36.6443 106.97C36.9943 107.57 37.1693 108.265 37.1693 109.055C37.1693 109.835 36.9943 110.53 36.6443 111.14C36.3043 111.74 35.8293 112.215 35.2193 112.565C34.6093 112.905 33.9193 113.075 33.1493 113.075ZM33.1493 112.13C33.7193 112.13 34.2243 112.005 34.6643 111.755C35.1043 111.495 35.4493 111.135 35.6993 110.675C35.9593 110.205 36.0893 109.665 36.0893 109.055C36.0893 108.435 35.9593 107.895 35.6993 107.435C35.4493 106.975 35.1043 106.62 34.6643 106.37C34.2243 106.11 33.7243 105.98 33.1643 105.98C32.6043 105.98 32.1043 106.11 31.6643 106.37C31.2243 106.62 30.8743 106.975 30.6143 107.435C30.3543 107.895 30.2243 108.435 30.2243 109.055C30.2243 109.665 30.3543 110.205 30.6143 110.675C30.8743 111.135 31.2243 111.495 31.6643 111.755C32.1043 112.005 32.5993 112.13 33.1493 112.13ZM41.2336 113.075C40.4936 113.075 39.9236 112.875 39.5236 112.475C39.1236 112.075 38.9236 111.51 38.9236 110.78V103.385H39.9886V110.72C39.9886 111.18 40.1036 111.535 40.3336 111.785C40.5736 112.035 40.9136 112.16 41.3536 112.16C41.8236 112.16 42.2136 112.025 42.5236 111.755L42.8986 112.52C42.6886 112.71 42.4336 112.85 42.1336 112.94C41.8436 113.03 41.5436 113.075 41.2336 113.075ZM37.5136 106.01V105.125H42.3886V106.01H37.5136ZM47.304 113.075C46.484 113.075 45.764 112.905 45.144 112.565C44.524 112.215 44.039 111.74 43.689 111.14C43.339 110.53 43.164 109.835 43.164 109.055C43.164 108.275 43.329 107.585 43.659 106.985C43.999 106.385 44.459 105.915 45.039 105.575C45.629 105.225 46.289 105.05 47.019 105.05C47.759 105.05 48.414 105.22 48.984 105.56C49.564 105.89 50.019 106.36 50.349 106.97C50.679 107.57 50.844 108.265 50.844 109.055C50.844 109.105 50.839 109.16 50.829 109.22C50.829 109.27 50.829 109.325 50.829 109.385H43.974V108.59H50.259L49.839 108.905C49.839 108.335 49.714 107.83 49.464 107.39C49.224 106.94 48.894 106.59 48.474 106.34C48.054 106.09 47.569 105.965 47.019 105.965C46.479 105.965 45.994 106.09 45.564 106.34C45.134 106.59 44.799 106.94 44.559 107.39C44.319 107.84 44.199 108.355 44.199 108.935V109.1C44.199 109.7 44.329 110.23 44.589 110.69C44.859 111.14 45.229 111.495 45.699 111.755C46.179 112.005 46.724 112.13 47.334 112.13C47.814 112.13 48.259 112.045 48.669 111.875C49.089 111.705 49.449 111.445 49.749 111.095L50.349 111.785C49.999 112.205 49.559 112.525 49.029 112.745C48.509 112.965 47.934 113.075 47.304 113.075ZM55.6818 113.075C54.9018 113.075 54.2018 112.905 53.5818 112.565C52.9718 112.215 52.4918 111.74 52.1418 111.14C51.7918 110.53 51.6168 109.835 51.6168 109.055C51.6168 108.265 51.7918 107.57 52.1418 106.97C52.4918 106.37 52.9718 105.9 53.5818 105.56C54.2018 105.22 54.9018 105.05 55.6818 105.05C56.3518 105.05 56.9568 105.18 57.4968 105.44C58.0368 105.7 58.4618 106.09 58.7718 106.61L57.9768 107.15C57.7068 106.75 57.3718 106.455 56.9718 106.265C56.5718 106.075 56.1368 105.98 55.6668 105.98C55.1068 105.98 54.6018 106.11 54.1518 106.37C53.7018 106.62 53.3468 106.975 53.0868 107.435C52.8268 107.895 52.6968 108.435 52.6968 109.055C52.6968 109.675 52.8268 110.215 53.0868 110.675C53.3468 111.135 53.7018 111.495 54.1518 111.755C54.6018 112.005 55.1068 112.13 55.6668 112.13C56.1368 112.13 56.5718 112.035 56.9718 111.845C57.3718 111.655 57.7068 111.365 57.9768 110.975L58.7718 111.515C58.4618 112.025 58.0368 112.415 57.4968 112.685C56.9568 112.945 56.3518 113.075 55.6818 113.075ZM60.1467 113V101.87H61.2117V107.285L61.0017 106.88C61.2517 106.31 61.6517 105.865 62.2017 105.545C62.7517 105.215 63.4067 105.05 64.1667 105.05C64.8067 105.05 65.3667 105.175 65.8467 105.425C66.3367 105.665 66.7167 106.035 66.9867 106.535C67.2667 107.035 67.4067 107.665 67.4067 108.425V113H66.3417V108.53C66.3417 107.7 66.1317 107.075 65.7117 106.655C65.3017 106.225 64.7217 106.01 63.9717 106.01C63.4117 106.01 62.9217 106.125 62.5017 106.355C62.0917 106.575 61.7717 106.9 61.5417 107.33C61.3217 107.75 61.2117 108.26 61.2117 108.86V113H60.1467ZM69.6834 113V105.125H70.7484V113H69.6834ZM70.2234 103.385C70.0034 103.385 69.8184 103.31 69.6684 103.16C69.5184 103.01 69.4434 102.83 69.4434 102.62C69.4434 102.41 69.5184 102.235 69.6684 102.095C69.8184 101.945 70.0034 101.87 70.2234 101.87C70.4434 101.87 70.6284 101.94 70.7784 102.08C70.9284 102.22 71.0034 102.395 71.0034 102.605C71.0034 102.825 70.9284 103.01 70.7784 103.16C70.6384 103.31 70.4534 103.385 70.2234 103.385ZM73.1118 113V105.125H74.1318V107.285L73.9668 106.88C74.2168 106.31 74.6168 105.865 75.1668 105.545C75.7168 105.215 76.3718 105.05 77.1318 105.05C77.7718 105.05 78.3318 105.175 78.8118 105.425C79.3018 105.665 79.6818 106.035 79.9518 106.535C80.2318 107.035 80.3718 107.665 80.3718 108.425V113H79.3068V108.53C79.3068 107.7 79.0968 107.075 78.6768 106.655C78.2668 106.225 77.6868 106.01 76.9368 106.01C76.3768 106.01 75.8868 106.125 75.4668 106.355C75.0568 106.575 74.7368 106.9 74.5068 107.33C74.2868 107.75 74.1768 108.26 74.1768 108.86V113H73.1118ZM85.9185 113.075C85.1385 113.075 84.4385 112.905 83.8185 112.565C83.2085 112.215 82.7285 111.74 82.3785 111.14C82.0285 110.53 81.8535 109.835 81.8535 109.055C81.8535 108.265 82.0285 107.57 82.3785 106.97C82.7285 106.37 83.2085 105.9 83.8185 105.56C84.4385 105.22 85.1385 105.05 85.9185 105.05C86.5885 105.05 87.1935 105.18 87.7335 105.44C88.2735 105.7 88.6985 106.09 89.0085 106.61L88.2135 107.15C87.9435 106.75 87.6085 106.455 87.2085 106.265C86.8085 106.075 86.3735 105.98 85.9035 105.98C85.3435 105.98 84.8385 106.11 84.3885 106.37C83.9385 106.62 83.5835 106.975 83.3235 107.435C83.0635 107.895 82.9335 108.435 82.9335 109.055C82.9335 109.675 83.0635 110.215 83.3235 110.675C83.5835 111.135 83.9385 111.495 84.3885 111.755C84.8385 112.005 85.3435 112.13 85.9035 112.13C86.3735 112.13 86.8085 112.035 87.2085 111.845C87.6085 111.655 87.9435 111.365 88.2135 110.975L89.0085 111.515C88.6985 112.025 88.2735 112.415 87.7335 112.685C87.1935 112.945 86.5885 113.075 85.9185 113.075ZM95.4356 113V111.26L95.3906 110.975V108.065C95.3906 107.395 95.2006 106.88 94.8206 106.52C94.4506 106.16 93.8956 105.98 93.1556 105.98C92.6456 105.98 92.1606 106.065 91.7006 106.235C91.2406 106.405 90.8506 106.63 90.5306 106.91L90.0506 106.115C90.4506 105.775 90.9306 105.515 91.4906 105.335C92.0506 105.145 92.6406 105.05 93.2606 105.05C94.2806 105.05 95.0656 105.305 95.6156 105.815C96.1756 106.315 96.4556 107.08 96.4556 108.11V113H95.4356ZM92.7206 113.075C92.1306 113.075 91.6156 112.98 91.1756 112.79C90.7456 112.59 90.4156 112.32 90.1856 111.98C89.9556 111.63 89.8406 111.23 89.8406 110.78C89.8406 110.37 89.9356 110 90.1256 109.67C90.3256 109.33 90.6456 109.06 91.0856 108.86C91.5356 108.65 92.1356 108.545 92.8856 108.545H95.6006V109.34H92.9156C92.1556 109.34 91.6256 109.475 91.3256 109.745C91.0356 110.015 90.8906 110.35 90.8906 110.75C90.8906 111.2 91.0656 111.56 91.4156 111.83C91.7656 112.1 92.2556 112.235 92.8856 112.235C93.4856 112.235 94.0006 112.1 94.4306 111.83C94.8706 111.55 95.1906 111.15 95.3906 110.63L95.6306 111.365C95.4306 111.885 95.0806 112.3 94.5806 112.61C94.0906 112.92 93.4706 113.075 92.7206 113.075ZM98.7483 113V101.87H99.8133V113H98.7483ZM113.242 113.165L107.452 107.21C107.102 106.84 106.822 106.52 106.612 106.25C106.412 105.97 106.272 105.705 106.192 105.455C106.112 105.205 106.072 104.94 106.072 104.66C106.072 104.21 106.177 103.82 106.387 103.49C106.607 103.15 106.917 102.89 107.317 102.71C107.717 102.52 108.187 102.425 108.727 102.425C109.217 102.425 109.642 102.51 110.002 102.68C110.372 102.84 110.657 103.075 110.857 103.385C111.067 103.695 111.172 104.07 111.172 104.51C111.172 104.89 111.077 105.245 110.887 105.575C110.707 105.905 110.407 106.23 109.987 106.55C109.567 106.86 108.997 107.21 108.277 107.6C107.647 107.95 107.147 108.27 106.777 108.56C106.417 108.85 106.162 109.135 106.012 109.415C105.862 109.685 105.787 109.985 105.787 110.315C105.787 110.695 105.892 111.03 106.102 111.32C106.322 111.6 106.622 111.82 107.002 111.98C107.392 112.13 107.837 112.205 108.337 112.205C109.037 112.205 109.662 112.06 110.212 111.77C110.762 111.48 111.222 111.04 111.592 110.45C111.972 109.86 112.247 109.12 112.417 108.23L113.272 108.5C113.082 109.5 112.757 110.34 112.297 111.02C111.837 111.7 111.267 112.215 110.587 112.565C109.907 112.915 109.137 113.09 108.277 113.09C107.597 113.09 106.992 112.98 106.462 112.76C105.932 112.53 105.512 112.215 105.202 111.815C104.902 111.415 104.752 110.95 104.752 110.42C104.752 109.97 104.852 109.56 105.052 109.19C105.252 108.81 105.572 108.44 106.012 108.08C106.462 107.71 107.057 107.325 107.797 106.925C108.427 106.575 108.917 106.275 109.267 106.025C109.627 105.765 109.882 105.52 110.032 105.29C110.182 105.05 110.257 104.795 110.257 104.525C110.257 104.135 110.122 103.82 109.852 103.58C109.592 103.34 109.217 103.22 108.727 103.22C108.197 103.22 107.787 103.355 107.497 103.625C107.207 103.885 107.062 104.225 107.062 104.645C107.062 104.855 107.092 105.055 107.152 105.245C107.222 105.435 107.347 105.645 107.527 105.875C107.717 106.105 107.977 106.395 108.307 106.745L113.857 112.46L113.242 113.165ZM118.487 113V102.5H119.597V112.04H125.477V113H118.487ZM126.495 113V105.125H127.56V113H126.495ZM127.035 103.385C126.815 103.385 126.63 103.31 126.48 103.16C126.33 103.01 126.255 102.83 126.255 102.62C126.255 102.41 126.33 102.235 126.48 102.095C126.63 101.945 126.815 101.87 127.035 101.87C127.255 101.87 127.44 101.94 127.59 102.08C127.74 102.22 127.815 102.395 127.815 102.605C127.815 102.825 127.74 103.01 127.59 103.16C127.45 103.31 127.265 103.385 127.035 103.385ZM130.104 113V104.135C130.104 103.435 130.309 102.87 130.719 102.44C131.129 102.01 131.719 101.795 132.489 101.795C132.789 101.795 133.079 101.835 133.359 101.915C133.639 101.995 133.874 102.12 134.064 102.29L133.704 103.085C133.554 102.955 133.379 102.86 133.179 102.8C132.979 102.73 132.764 102.695 132.534 102.695C132.084 102.695 131.739 102.82 131.499 103.07C131.259 103.32 131.139 103.69 131.139 104.18V105.38L131.169 105.875V113H130.104ZM128.694 106.01V105.125H133.569V106.01H128.694ZM136.897 113.075C136.157 113.075 135.587 112.875 135.187 112.475C134.787 112.075 134.587 111.51 134.587 110.78V103.385H135.652V110.72C135.652 111.18 135.767 111.535 135.997 111.785C136.237 112.035 136.577 112.16 137.017 112.16C137.487 112.16 137.877 112.025 138.187 111.755L138.562 112.52C138.352 112.71 138.097 112.85 137.797 112.94C137.507 113.03 137.207 113.075 136.897 113.075ZM133.177 106.01V105.125H138.052V106.01H133.177ZM139.9 113V105.125H140.965V113H139.9ZM140.44 103.385C140.22 103.385 140.035 103.31 139.885 103.16C139.735 103.01 139.66 102.83 139.66 102.62C139.66 102.41 139.735 102.235 139.885 102.095C140.035 101.945 140.22 101.87 140.44 101.87C140.66 101.87 140.845 101.94 140.995 102.08C141.145 102.22 141.22 102.395 141.22 102.605C141.22 102.825 141.145 103.01 140.995 103.16C140.855 103.31 140.67 103.385 140.44 103.385ZM143.329 113V105.125H144.349V107.285L144.184 106.88C144.434 106.31 144.834 105.865 145.384 105.545C145.934 105.215 146.589 105.05 147.349 105.05C147.989 105.05 148.549 105.175 149.029 105.425C149.519 105.665 149.899 106.035 150.169 106.535C150.449 107.035 150.589 107.665 150.589 108.425V113H149.524V108.53C149.524 107.7 149.314 107.075 148.894 106.655C148.484 106.225 147.904 106.01 147.154 106.01C146.594 106.01 146.104 106.125 145.684 106.355C145.274 106.575 144.954 106.9 144.724 107.33C144.504 107.75 144.394 108.26 144.394 108.86V113H143.329ZM156.225 115.985C155.505 115.985 154.815 115.88 154.155 115.67C153.495 115.46 152.96 115.16 152.55 114.77L153.09 113.96C153.46 114.29 153.915 114.55 154.455 114.74C155.005 114.94 155.585 115.04 156.195 115.04C157.195 115.04 157.93 114.805 158.4 114.335C158.87 113.875 159.105 113.155 159.105 112.175V110.21L159.255 108.86L159.15 107.51V105.125H160.17V112.04C160.17 113.4 159.835 114.395 159.165 115.025C158.505 115.665 157.525 115.985 156.225 115.985ZM156.03 112.7C155.28 112.7 154.605 112.54 154.005 112.22C153.405 111.89 152.93 111.435 152.58 110.855C152.24 110.275 152.07 109.61 152.07 108.86C152.07 108.11 152.24 107.45 152.58 106.88C152.93 106.3 153.405 105.85 154.005 105.53C154.605 105.21 155.28 105.05 156.03 105.05C156.73 105.05 157.36 105.195 157.92 105.485C158.48 105.775 158.925 106.205 159.255 106.775C159.585 107.345 159.75 108.04 159.75 108.86C159.75 109.68 159.585 110.375 159.255 110.945C158.925 111.515 158.48 111.95 157.92 112.25C157.36 112.55 156.73 112.7 156.03 112.7ZM156.135 111.755C156.715 111.755 157.23 111.635 157.68 111.395C158.13 111.145 158.485 110.805 158.745 110.375C159.005 109.935 159.135 109.43 159.135 108.86C159.135 108.29 159.005 107.79 158.745 107.36C158.485 106.93 158.13 106.595 157.68 106.355C157.23 106.105 156.715 105.98 156.135 105.98C155.565 105.98 155.05 106.105 154.59 106.355C154.14 106.595 153.785 106.93 153.525 107.36C153.275 107.79 153.15 108.29 153.15 108.86C153.15 109.43 153.275 109.935 153.525 110.375C153.785 110.805 154.14 111.145 154.59 111.395C155.05 111.635 155.565 111.755 156.135 111.755ZM166.085 113V102.5H173.285V103.46H167.195V112.04H173.51V113H166.085ZM167.075 108.14V107.195H172.625V108.14H167.075ZM175.294 113V105.125H176.314V107.285L176.149 106.88C176.399 106.31 176.799 105.865 177.349 105.545C177.899 105.215 178.554 105.05 179.314 105.05C179.954 105.05 180.514 105.175 180.994 105.425C181.484 105.665 181.864 106.035 182.134 106.535C182.414 107.035 182.554 107.665 182.554 108.425V113H181.489V108.53C181.489 107.7 181.279 107.075 180.859 106.655C180.449 106.225 179.869 106.01 179.119 106.01C178.559 106.01 178.069 106.125 177.649 106.355C177.239 106.575 176.919 106.9 176.689 107.33C176.469 107.75 176.359 108.26 176.359 108.86V113H175.294ZM188.191 115.985C187.471 115.985 186.781 115.88 186.121 115.67C185.461 115.46 184.926 115.16 184.516 114.77L185.056 113.96C185.426 114.29 185.881 114.55 186.421 114.74C186.971 114.94 187.551 115.04 188.161 115.04C189.161 115.04 189.896 114.805 190.366 114.335C190.836 113.875 191.071 113.155 191.071 112.175V110.21L191.221 108.86L191.116 107.51V105.125H192.136V112.04C192.136 113.4 191.801 114.395 191.131 115.025C190.471 115.665 189.491 115.985 188.191 115.985ZM187.996 112.7C187.246 112.7 186.571 112.54 185.971 112.22C185.371 111.89 184.896 111.435 184.546 110.855C184.206 110.275 184.036 109.61 184.036 108.86C184.036 108.11 184.206 107.45 184.546 106.88C184.896 106.3 185.371 105.85 185.971 105.53C186.571 105.21 187.246 105.05 187.996 105.05C188.696 105.05 189.326 105.195 189.886 105.485C190.446 105.775 190.891 106.205 191.221 106.775C191.551 107.345 191.716 108.04 191.716 108.86C191.716 109.68 191.551 110.375 191.221 110.945C190.891 111.515 190.446 111.95 189.886 112.25C189.326 112.55 188.696 112.7 187.996 112.7ZM188.101 111.755C188.681 111.755 189.196 111.635 189.646 111.395C190.096 111.145 190.451 110.805 190.711 110.375C190.971 109.935 191.101 109.43 191.101 108.86C191.101 108.29 190.971 107.79 190.711 107.36C190.451 106.93 190.096 106.595 189.646 106.355C189.196 106.105 188.681 105.98 188.101 105.98C187.531 105.98 187.016 106.105 186.556 106.355C186.106 106.595 185.751 106.93 185.491 107.36C185.241 107.79 185.116 108.29 185.116 108.86C185.116 109.43 185.241 109.935 185.491 110.375C185.751 110.805 186.106 111.145 186.556 111.395C187.016 111.635 187.531 111.755 188.101 111.755ZM194.499 113V105.125H195.564V113H194.499ZM195.039 103.385C194.819 103.385 194.634 103.31 194.484 103.16C194.334 103.01 194.259 102.83 194.259 102.62C194.259 102.41 194.334 102.235 194.484 102.095C194.634 101.945 194.819 101.87 195.039 101.87C195.259 101.87 195.444 101.94 195.594 102.08C195.744 102.22 195.819 102.395 195.819 102.605C195.819 102.825 195.744 103.01 195.594 103.16C195.454 103.31 195.269 103.385 195.039 103.385ZM197.928 113V105.125H198.948V107.285L198.783 106.88C199.033 106.31 199.433 105.865 199.983 105.545C200.533 105.215 201.188 105.05 201.948 105.05C202.588 105.05 203.148 105.175 203.628 105.425C204.118 105.665 204.498 106.035 204.768 106.535C205.048 107.035 205.188 107.665 205.188 108.425V113H204.123V108.53C204.123 107.7 203.913 107.075 203.493 106.655C203.083 106.225 202.503 106.01 201.753 106.01C201.193 106.01 200.703 106.125 200.283 106.355C199.873 106.575 199.553 106.9 199.323 107.33C199.103 107.75 198.993 108.26 198.993 108.86V113H197.928ZM210.809 113.075C209.989 113.075 209.269 112.905 208.649 112.565C208.029 112.215 207.544 111.74 207.194 111.14C206.844 110.53 206.669 109.835 206.669 109.055C206.669 108.275 206.834 107.585 207.164 106.985C207.504 106.385 207.964 105.915 208.544 105.575C209.134 105.225 209.794 105.05 210.524 105.05C211.264 105.05 211.919 105.22 212.489 105.56C213.069 105.89 213.524 106.36 213.854 106.97C214.184 107.57 214.349 108.265 214.349 109.055C214.349 109.105 214.344 109.16 214.334 109.22C214.334 109.27 214.334 109.325 214.334 109.385H207.479V108.59H213.764L213.344 108.905C213.344 108.335 213.219 107.83 212.969 107.39C212.729 106.94 212.399 106.59 211.979 106.34C211.559 106.09 211.074 105.965 210.524 105.965C209.984 105.965 209.499 106.09 209.069 106.34C208.639 106.59 208.304 106.94 208.064 107.39C207.824 107.84 207.704 108.355 207.704 108.935V109.1C207.704 109.7 207.834 110.23 208.094 110.69C208.364 111.14 208.734 111.495 209.204 111.755C209.684 112.005 210.229 112.13 210.839 112.13C211.319 112.13 211.764 112.045 212.174 111.875C212.594 111.705 212.954 111.445 213.254 111.095L213.854 111.785C213.504 112.205 213.064 112.525 212.534 112.745C212.014 112.965 211.439 113.075 210.809 113.075ZM219.262 113.075C218.442 113.075 217.722 112.905 217.102 112.565C216.482 112.215 215.997 111.74 215.647 111.14C215.297 110.53 215.122 109.835 215.122 109.055C215.122 108.275 215.287 107.585 215.617 106.985C215.957 106.385 216.417 105.915 216.997 105.575C217.587 105.225 218.247 105.05 218.977 105.05C219.717 105.05 220.372 105.22 220.942 105.56C221.522 105.89 221.977 106.36 222.307 106.97C222.637 107.57 222.802 108.265 222.802 109.055C222.802 109.105 222.797 109.16 222.787 109.22C222.787 109.27 222.787 109.325 222.787 109.385H215.932V108.59H222.217L221.797 108.905C221.797 108.335 221.672 107.83 221.422 107.39C221.182 106.94 220.852 106.59 220.432 106.34C220.012 106.09 219.527 105.965 218.977 105.965C218.437 105.965 217.952 106.09 217.522 106.34C217.092 106.59 216.757 106.94 216.517 107.39C216.277 107.84 216.157 108.355 216.157 108.935V109.1C216.157 109.7 216.287 110.23 216.547 110.69C216.817 111.14 217.187 111.495 217.657 111.755C218.137 112.005 218.682 112.13 219.292 112.13C219.772 112.13 220.217 112.045 220.627 111.875C221.047 111.705 221.407 111.445 221.707 111.095L222.307 111.785C221.957 112.205 221.517 112.525 220.987 112.745C220.467 112.965 219.892 113.075 219.262 113.075ZM224.37 113V105.125H225.39V107.27L225.285 106.895C225.505 106.295 225.875 105.84 226.395 105.53C226.915 105.21 227.56 105.05 228.33 105.05V106.085C228.29 106.085 228.25 106.085 228.21 106.085C228.17 106.075 228.13 106.07 228.09 106.07C227.26 106.07 226.61 106.325 226.14 106.835C225.67 107.335 225.435 108.05 225.435 108.98V113H224.37ZM229.673 113V105.125H230.738V113H229.673ZM230.213 103.385C229.993 103.385 229.808 103.31 229.658 103.16C229.508 103.01 229.433 102.83 229.433 102.62C229.433 102.41 229.508 102.235 229.658 102.095C229.808 101.945 229.993 101.87 230.213 101.87C230.433 101.87 230.618 101.94 230.768 102.08C230.918 102.22 230.993 102.395 230.993 102.605C230.993 102.825 230.918 103.01 230.768 103.16C230.628 103.31 230.443 103.385 230.213 103.385ZM233.101 113V105.125H234.121V107.285L233.956 106.88C234.206 106.31 234.606 105.865 235.156 105.545C235.706 105.215 236.361 105.05 237.121 105.05C237.761 105.05 238.321 105.175 238.801 105.425C239.291 105.665 239.671 106.035 239.941 106.535C240.221 107.035 240.361 107.665 240.361 108.425V113H239.296V108.53C239.296 107.7 239.086 107.075 238.666 106.655C238.256 106.225 237.676 106.01 236.926 106.01C236.366 106.01 235.876 106.125 235.456 106.355C235.046 106.575 234.726 106.9 234.496 107.33C234.276 107.75 234.166 108.26 234.166 108.86V113H233.101ZM245.998 115.985C245.278 115.985 244.588 115.88 243.928 115.67C243.268 115.46 242.733 115.16 242.323 114.77L242.863 113.96C243.233 114.29 243.688 114.55 244.228 114.74C244.778 114.94 245.358 115.04 245.968 115.04C246.968 115.04 247.703 114.805 248.173 114.335C248.643 113.875 248.878 113.155 248.878 112.175V110.21L249.028 108.86L248.923 107.51V105.125H249.943V112.04C249.943 113.4 249.608 114.395 248.938 115.025C248.278 115.665 247.298 115.985 245.998 115.985ZM245.803 112.7C245.053 112.7 244.378 112.54 243.778 112.22C243.178 111.89 242.703 111.435 242.353 110.855C242.013 110.275 241.843 109.61 241.843 108.86C241.843 108.11 242.013 107.45 242.353 106.88C242.703 106.3 243.178 105.85 243.778 105.53C244.378 105.21 245.053 105.05 245.803 105.05C246.503 105.05 247.133 105.195 247.693 105.485C248.253 105.775 248.698 106.205 249.028 106.775C249.358 107.345 249.523 108.04 249.523 108.86C249.523 109.68 249.358 110.375 249.028 110.945C248.698 111.515 248.253 111.95 247.693 112.25C247.133 112.55 246.503 112.7 245.803 112.7ZM245.908 111.755C246.488 111.755 247.003 111.635 247.453 111.395C247.903 111.145 248.258 110.805 248.518 110.375C248.778 109.935 248.908 109.43 248.908 108.86C248.908 108.29 248.778 107.79 248.518 107.36C248.258 106.93 247.903 106.595 247.453 106.355C247.003 106.105 246.488 105.98 245.908 105.98C245.338 105.98 244.823 106.105 244.363 106.355C243.913 106.595 243.558 106.93 243.298 107.36C243.048 107.79 242.923 108.29 242.923 108.86C242.923 109.43 243.048 109.935 243.298 110.375C243.558 110.805 243.913 111.145 244.363 111.395C244.823 111.635 245.338 111.755 245.908 111.755Z" fill="#4B4B4D"/>
<path d="M23.861 61.4538L8.72803 67.0586V72.3831L46 56.1292L82.9917 72.6634V66.4981L67.018 61.4538L45.7198 40.9962L23.861 61.4538Z" fill="#085984"/>
<path d="M46 84.994L30.5868 92H61.4132L46 84.994Z" fill="#CF862A"/>
<path d="M82.9917 72.6634L46 56.1292L8.72803 72.3831V84.4335L46 68.4598L83.272 84.994L82.9917 72.6634Z" fill="#CF862A"/>
<path d="M46 68.4598L8.72803 84.4335V92H30.5868L46 84.994L61.4132 92H83.272V84.994L46 68.4598Z" fill="#844208"/>
<path d="M22.1796 54.6469L8.72803 59.9715V36.9917L45.7198 0L82.9917 36.9917V59.6912L70.3809 56.0481L49.3629 34.4696V31.6672H51.3246V21.695H38.994V31.6672H41.7964V35.0301L22.1796 54.6469Z" fill="#085984"/>
</svg>
