<svg width="32" height="32" viewBox="0 0 32 32" fill="none" xmlns="http://www.w3.org/2000/svg">
<path d="M8.29954 21.3752L3.03589 23.3247V25.1768L16.0001 19.5232L28.8667 25.2742V23.1298L23.3107 21.3752L15.9026 14.2596L8.29954 21.3752Z" fill="#085984"/>
<path d="M16.0001 29.5631L10.6389 32H21.3612L16.0001 29.5631Z" fill="#CF862A"/>
<path d="M28.8667 25.2742L16.0001 19.5232L3.03589 25.1768V29.3682L16.0001 23.8121L28.9642 29.5631L28.8667 25.2742Z" fill="#CF862A"/>
<path d="M16.0001 23.8121L3.03589 29.3682V32H10.6389L16.0001 29.5631L21.3612 32H28.9642V29.5631L16.0001 23.8121Z" fill="#844208"/>
<path d="M7.71469 19.0076L3.03589 20.8596V12.8667L15.9026 0L28.8667 12.8667V20.7622L24.4804 19.495L17.1698 11.9894V11.0147H17.8521V7.54607H13.5632V11.0147H14.5379V12.1844L7.71469 19.0076Z" fill="#085984"/>
</svg>
